HIERARCHY
ROOT joint_Root
{
	OFFSET 0.0 0.0 0.0
	CHANNELS 6 Xposition Yposition Zposition Zrotation Xrotation Yrotation 
	JOINT Hips
	{
		OFFSET 4.5925 91.4895 -427.239
		CHANNELS 6 Xposition Yposition Zposition Zrotation Xrotation Yrotation 
		JOINT Spine
		{
			OFFSET 15.7357 0.0 0.0
			CHANNELS 6 Xposition Yposition Zposition Zrotation Xrotation Yrotation 
			JOINT Chest
			{
				OFFSET 8.98455 -0.406207 0.0
				CHANNELS 6 Xposition Yposition Zposition Zrotation Xrotation Yrotation 
				JOINT Neck
				{
					OFFSET 16.3773 0.0 0.0
					CHANNELS 6 Xposition Yposition Zposition Zrotation Xrotation Yrotation 
					JOINT Head
					{
						OFFSET 6.45672 0.0 0.0
						CHANNELS 6 Xposition Yposition Zposition Zrotation Xrotation Yrotation 
						End Site
						{
							OFFSET 0.0 0.0 0.0
						}
					}
				}
				JOINT Shoulder_L
				{
					OFFSET 12.9942 -0.242716 4.98039
					CHANNELS 6 Xposition Yposition Zposition Zrotation Xrotation Yrotation 
					JOINT UpperArm_L
					{
						OFFSET 5.34809 0.0 0.0
						CHANNELS 6 Xposition Yposition Zposition Zrotation Xrotation Yrotation 
						JOINT LowerArm_L
						{
							OFFSET 24.3286 1.87007e-05 0.0
							CHANNELS 6 Xposition Yposition Zposition Zrotation Xrotation Yrotation 
							JOINT Hand_L
							{
								OFFSET 22.2916 0.0 0.0
								CHANNELS 6 Xposition Yposition Zposition Zrotation Xrotation Yrotation 
								End Site
								{
									OFFSET 0.0 0.0 0.0
								}
							}
						}
					}
				}
				JOINT Shoulder_R
				{
					OFFSET 12.9945 -0.242716 -4.98039
					CHANNELS 6 Xposition Yposition Zposition Zrotation Xrotation Yrotation 
					JOINT UpperArm_R
					{
						OFFSET -5.34813 0.0 0.0
						CHANNELS 6 Xposition Yposition Zposition Zrotation Xrotation Yrotation 
						JOINT LowerArm_R
						{
							OFFSET -24.3289 0.000322201 0.0
							CHANNELS 6 Xposition Yposition Zposition Zrotation Xrotation Yrotation 
							JOINT Hand_R
							{
								OFFSET -22.2915 -0.000108084 0.0
								CHANNELS 6 Xposition Yposition Zposition Zrotation Xrotation Yrotation 
								End Site
								{
									OFFSET 0.0 0.0 0.0
								}
							}
						}
					}
				}
			}
		}
		JOINT UpperLeg_L
		{
			OFFSET -2.19248 -6.46944 0.0
			CHANNELS 6 Xposition Yposition Zposition Zrotation Xrotation Yrotation 
			JOINT LowerLeg_L
			{
				OFFSET 39.0811 0.0 -1.23785e-05
				CHANNELS 6 Xposition Yposition Zposition Zrotation Xrotation Yrotation 
				JOINT Foot_L
				{
					OFFSET 40.9854 0.0 -1.26872e-05
					CHANNELS 6 Xposition Yposition Zposition Zrotation Xrotation Yrotation 
					JOINT Toes_L
					{
						OFFSET 11.7543 0.0 0.0
						CHANNELS 6 Xposition Yposition Zposition Zrotation Xrotation Yrotation 
						End Site
						{
							OFFSET 0.0 0.0 0.0
						}
					}
				}
			}
		}
		JOINT UpperLeg_R
		{
			OFFSET -2.19251 6.46944 0.0
			CHANNELS 6 Xposition Yposition Zposition Zrotation Xrotation Yrotation 
			JOINT LowerLeg_R
			{
				OFFSET -39.0811 -0.00228153 -0.0401928
				CHANNELS 6 Xposition Yposition Zposition Zrotation Xrotation Yrotation 
				JOINT Foot_R
				{
					OFFSET -40.9854 0.0 0.0
					CHANNELS 6 Xposition Yposition Zposition Zrotation Xrotation Yrotation 
					JOINT Toes_R
					{
						OFFSET -11.7543 0.0 0.0
						CHANNELS 6 Xposition Yposition Zposition Zrotation Xrotation Yrotation 
						End Site
						{
							OFFSET 0.0 0.0 0.0
						}
					}
				}
			}
		}
	}
}
MOTION
Frames:	4
Frame Time:	0.0333333
0.000000 0.000000 0.000000 0.000000 0.000000 -0.000000 -3.542120 89.763900 2.056250 85.836500 -7.081290 5.239110 15.735700 0.000005 -0.000001 73.678600 84.719300 -77.249800 8.984550 -0.406207 -0.000000 2.295370 -2.795570 -7.080170 16.377300 -0.000001 -0.000001 7.848190 0.997968 1.719160 6.456720 -0.000001 -0.000000 -0.933401 4.444290 3.401310 12.994200 -0.242716 4.980390 -90.478700 1.197900 -68.217200 5.348090 -0.000007 -0.000001 -65.455800 18.537200 -5.391350 24.328600 0.000019 0.000005 6.893780 15.965000 -23.727900 22.291600 -0.000001 0.000005 18.073600 5.220400 2.202630 12.994500 -0.242716 -4.980390 92.017100 -5.882030 -71.037900 -5.348130 -0.000001 -0.000004 -30.856800 -55.202800 -55.271600 -24.328900 0.000322 -0.000009 -8.993550 -16.145500 -29.742200 -22.291500 -0.000108 -0.000004 22.880800 5.283220 0.709847 -2.192480 -6.469440 -0.000000 -170.186000 -10.327600 -5.192810 39.081100 -0.000007 -0.000012 -0.342415 0.469340 36.114000 40.985400 -0.000006 -0.000013 -3.433800 0.745714 -74.630900 11.754300 -0.000000 0.000003 -0.000394 -0.003264 -16.698000 -2.192510 6.469440 -0.000001 -177.596000 15.223900 175.172000 -39.081100 -0.002282 -0.040193 0.035939 -0.047682 34.398100 -40.985400 0.000008 0.000006 8.770470 9.404100 -73.544000 -11.754300 -0.000006 -0.000006 -0.515347 -0.633346 -17.913800
0.000000 0.000000 0.000000 0.000000 0.000000 -0.000000 -3.650360 89.752700 1.911920 85.645100 -7.064270 4.934780 15.735700 0.000005 -0.000001 74.757500 84.871600 -78.806300 8.984550 -0.406207 -0.000000 2.056760 -2.493410 -8.045870 16.377300 -0.000001 -0.000001 7.206110 1.725980 0.396028 6.456720 -0.000001 -0.000000 -1.141090 4.392050 3.995080 12.994200 -0.242716 4.980390 -90.633600 1.562970 -67.932200 5.348090 -0.000007 -0.000001 -64.281700 18.366100 -5.471980 24.328600 0.000019 0.000005 6.760070 15.165300 -24.375700 22.291600 -0.000001 0.000005 18.786400 5.221550 2.173810 12.994500 -0.242716 -4.980390 91.404100 -4.761810 -73.554400 -5.348130 -0.000001 -0.000004 -35.043500 -51.771400 -48.353500 -24.328900 0.000322 -0.000009 -11.078900 -30.226500 -21.261600 -22.291500 -0.000108 -0.000004 17.429600 4.829840 10.824100 -2.192480 -6.469440 -0.000000 -169.954000 -10.381400 -5.692760 39.081100 -0.000007 -0.000012 -0.337642 0.459381 36.316300 40.985400 -0.000006 -0.000013 -3.491560 0.846003 -74.598300 11.754300 -0.000000 0.000003 -0.000372 -0.003111 -16.692600 -2.192510 6.469440 -0.000001 -177.180000 15.183300 174.795000 -39.081100 -0.002282 -0.040193 0.036638 -0.048781 34.355200 -40.985400 0.000008 0.000006 8.867830 9.260510 -73.509000 -11.754300 -0.000006 -0.000006 -0.479950 -0.591239 -17.868900
0.000000 0.000000 0.000000 0.000000 0.000000 -0.000000 -3.709120 89.755200 1.822970 85.584900 -6.477810 4.857360 15.735700 0.000005 -0.000001 74.576600 84.867500 -78.844600 8.984550 -0.406207 -0.000000 2.051990 -2.515780 -8.483380 16.377300 -0.000001 -0.000001 6.557730 2.216810 -0.751185 6.456720 -0.000001 -0.000000 -1.343140 4.472170 3.889510 12.994200 -0.242716 4.980390 -90.691200 1.705920 -67.940500 5.348090 -0.000007 -0.000001 -64.093500 17.968300 -5.290910 24.328600 0.000019 0.000005 6.240810 14.398500 -23.738600 22.291600 -0.000001 0.000005 19.265200 5.222440 2.150200 12.994500 -0.242716 -4.980390 90.833400 -2.993290 -74.434100 -5.348130 -0.000001 -0.000004 -41.654700 -52.052100 -46.795400 -24.328900 0.000322 -0.000009 -9.663600 -33.753300 -17.037100 -22.291500 -0.000108 -0.000004 17.519100 4.276330 20.149600 -2.192480 -6.469440 -0.000000 -169.917000 -9.856940 -6.021540 39.081100 -0.000007 -0.000012 -0.334445 0.453641 36.400100 40.985400 -0.000006 -0.000013 -3.502670 0.955133 -74.515000 11.754300 -0.000000 0.000003 -0.000373 -0.003119 -16.692900 -2.192510 6.469440 -0.000001 -177.070000 15.691400 174.723000 -39.081100 -0.002282 -0.040193 0.036700 -0.049028 34.270700 -40.985400 0.000008 0.000006 8.873860 9.175640 -73.499600 -11.754300 -0.000006 -0.000006 -0.455539 -0.562195 -17.844900
0.000000 0.000000 0.000000 0.000000 0.000000 -0.000000 -3.603280 89.716600 1.760400 85.560100 -6.171620 4.745190 15.735700 0.000005 -0.000001 73.550700 84.840500 -77.747300 8.984550 -0.406207 -0.000000 2.047510 -2.711020 -8.337490 16.377300 -0.000001 -0.000001 6.073960 2.538340 -0.661570 6.456720 -0.000001 -0.000000 -1.319990 5.431590 3.851120 12.994200 -0.242716 4.980390 -90.640700 1.597070 -68.136600 5.348090 -0.000007 -0.000001 -64.718600 17.878800 -4.670240 24.328600 0.000019 0.000005 6.009790 14.851300 -22.330100 22.291600 -0.000001 0.000005 18.769700 5.206860 2.547530 12.994500 -0.242716 -4.980390 90.660200 -2.292060 -73.926600 -5.348130 -0.000001 -0.000004 -51.849400 -54.021800 -53.481800 -24.328900 0.000322 -0.000009 -8.854090 -34.105600 -15.524200 -22.291500 -0.000108 -0.000004 21.454200 4.372900 18.666400 -2.192480 -6.469440 -0.000000 -170.038000 -9.540520 -6.410900 39.081100 -0.000007 -0.000012 -0.341110 0.457992 36.679200 40.985400 -0.000006 -0.000013 -3.447670 0.858556 -74.587600 11.754300 -0.000000 0.000003 -0.000374 -0.003128 -16.693200 -2.192510 6.469440 -0.000001 -177.047000 15.766200 174.498000 -39.081100 -0.002282 -0.040193 0.036928 -0.049124 34.399900 -40.985400 0.000008 0.000006 8.805210 8.955020 -73.613300 -11.754300 -0.000006 -0.000006 -0.376814 -0.468683 -17.800000
